<svg width="77" height="77" viewBox="0 0 77 77" fill="none" xmlns="http://www.w3.org/2000/svg">
<circle cx="38.5" cy="38.5" r="38.5" fill="#4FB4E5"/>
<path d="M53.5531 18.4845C51.2881 19.554 44.8087 22.3442 30.3453 28.0899L23.313 31.4532L15.3633 34.5108L13.4655 35.3542C12.9243 35.5948 12.5175 36.0629 12.3548 36.6324L12.1394 37.3862C12.0479 37.7064 12.0378 38.0444 12.1101 38.3695L12.4372 39.8414C12.5491 40.3448 12.8511 40.7856 13.2802 41.0717L15.2453 42.3818C15.3237 42.4341 15.4077 42.4775 15.4956 42.5113L19.9065 44.2078C22.0896 45.0475 23.8553 46.7112 24.8232 48.8405C24.8355 48.8677 24.8457 48.8957 24.8535 48.9245L26.5106 55.0007C26.6184 55.3959 26.8451 55.7486 27.1598 56.0109L28.2502 56.9196C28.4227 57.0633 28.6181 57.177 28.8284 57.2558L30.1402 57.7477C30.661 57.943 31.2395 57.9126 31.7369 57.6639L32.7499 57.1574C32.7775 57.1436 32.8037 57.1273 32.8282 57.1085L34.8964 55.527C36.7134 54.1375 39.2434 54.1652 41.0295 55.5941C41.041 55.6033 41.0518 55.6133 41.0618 55.6241L44.4678 59.314C44.6318 59.4917 44.8267 59.6381 45.0429 59.7463L46.1281 60.2889C46.4058 60.4277 46.712 60.5 47.0225 60.5H48.9412C49.374 60.5 49.7951 60.3596 50.1412 60.1L51.6263 58.9862C51.9065 58.7761 52.1266 58.496 52.2646 58.1741L52.8912 56.712C52.9444 56.5878 52.9849 56.4585 53.0121 56.3261L55.4173 44.6007L57.2518 33.5935L59.3395 23.1549C59.5755 21.9752 59.5465 20.7579 59.2547 19.5908L59.2469 19.5595C59.145 19.1519 58.87 18.8091 58.4942 18.6212C57.6772 18.2127 56.7762 18 55.8627 18H55.5657C54.8708 18 54.1814 18.1878 53.5531 18.4845Z" fill="white" stroke="white" stroke-width="2"/>
<path d="M35.5431 31.1478L50.5036 24.9142C51.9649 24.3054 53.5208 25.555 53.2415 27.1133L48.7046 52.424C48.4299 53.957 46.5857 54.6016 45.4158 53.5735L39.2096 48.1196C38.4985 47.4947 37.4467 47.4539 36.6894 48.0219L36.3015 48.3128C34.8041 49.4359 32.7224 48.0704 33.1559 46.2496L33.2797 45.7295C33.3604 45.3907 33.5281 45.0789 33.7663 44.8249L37.9892 40.3205L46.4682 31.8414C46.5227 31.7869 46.5704 31.7258 46.6101 31.6597L47.057 30.9148C47.2377 30.6137 47.0207 30.2305 46.6695 30.2305C46.5914 30.2305 46.5146 30.2508 46.4466 30.2893L26.9546 41.3445C26.3958 41.6615 25.7187 41.6906 25.1346 41.423L22.7912 40.3489C21.2199 39.6287 21.2404 37.389 22.8246 36.6977L35.5431 31.1478Z" fill="white" stroke="white" stroke-width="2"/>
</svg>
