<svg width="77" height="77" viewBox="0 0 77 77" fill="none" xmlns="http://www.w3.org/2000/svg">
<circle cx="38.5" cy="38.5" r="38.5" fill="#0A06D3"/>
<path d="M22.7265 26H18C16.8954 26 16 26.8954 16 28V30.5756C16 30.8554 16.0587 31.1321 16.1724 31.3878L18 35.5L20.4193 40.3387C20.473 40.446 20.5362 40.5483 20.6082 40.6443L25 46.5L28.7441 50.7121C28.9132 50.9023 29.1169 51.0585 29.3445 51.1723L35.5777 54.2889C35.8554 54.4277 36.1616 54.5 36.4721 54.5H40.608C41.6695 54.5 42.5461 53.6708 42.6049 52.6109L42.8951 47.3891C42.9539 46.3292 43.8305 45.5 44.892 45.5H45.6019C46.1731 45.5 46.7172 45.7443 47.0967 46.1713L53.9636 53.8965C54.3077 54.2837 54.7886 54.5222 55.305 54.5619L59.6948 54.8996C60.4619 54.9586 61.1707 54.488 61.414 53.7581C61.4709 53.5872 61.5 53.4081 61.5 53.2279V52.1862C61.5 51.7415 61.3518 51.3094 61.0787 50.9583L54.9213 43.0417C54.6482 42.6906 54.5 42.2585 54.5 41.8138V41.3852C54.5 41.1307 54.5485 40.8786 54.643 40.6424L55.3971 38.7571C55.4654 38.5865 55.5568 38.4261 55.6689 38.2805L60.2945 32.2672C60.4305 32.0903 60.536 31.8919 60.6066 31.6802L61.3974 29.3079C61.4653 29.104 61.5 28.8904 61.5 28.6754V28.5C61.5 27.3954 60.6046 26.5 59.5 26.5H56.0479C55.3916 26.5 54.7771 26.822 54.4035 27.3616L46.5965 38.6384C46.2229 39.178 45.5996 39.5 44.9434 39.5C43.8676 39.5 42.9685 38.649 42.9287 37.574L42.5713 27.926C42.5315 26.8509 41.6485 26 40.5727 26H33C32.1716 26 31.5 26.6716 31.5 27.5C31.5 27.8246 31.6053 28.1404 31.8 28.4L32.6 29.4667C32.8596 29.8129 33 30.2339 33 30.6667V39.7782C33 40.453 32.453 41 31.7782 41C31.3034 41 30.8717 40.725 30.6709 40.2949L24.5386 27.1542C24.21 26.4501 23.5036 26 22.7265 26Z" fill="white" stroke="white" stroke-width="2"/>
</svg>
